<?xml version="1.0" standalone="no"?>
<!DOCTYPE svg PUBLIC "-//W3C//DTD SVG 20010904//EN"
 "http://www.w3.org/TR/2001/REC-SVG-20010904/DTD/svg10.dtd">
<svg version="1.0" xmlns="http://www.w3.org/2000/svg"
 width="451.000000pt" height="451.000000pt" viewBox="0 0 451.000000 451.000000"
 preserveAspectRatio="xMidYMid meet">
<metadata>
Created by potrace 1.11, written by Peter Selinger 2001-2013
</metadata>
<g transform="translate(0.000000,451.000000) scale(0.100000,-0.100000)"
fill="#000000" stroke="none">
<path d="M2095 4402 c-88 -31 -288 -155 -354 -220 -21 -20 -53 -30 -86 -26
-17 1 -102 6 -190 9 -88 3 -212 8 -276 10 -86 3 -121 1 -134 -9 -15 -11 16
-14 206 -20 123 -4 258 -7 299 -6 122 2 122 2 111 -17 -6 -10 -31 -40 -57 -68
-26 -27 -52 -61 -58 -75 -6 -14 -36 -63 -66 -110 -31 -47 -65 -105 -77 -130
-59 -123 -126 -281 -120 -286 2 -3 17 27 75 144 24 48 31 39 16 -20 -17 -62
-19 -101 -5 -78 6 8 7 18 4 24 -3 5 -1 6 5 2 6 -4 9 -12 7 -19 -2 -7 -6 -41
-10 -77 -6 -60 -5 -63 9 -45 15 19 15 18 10 -15 -4 -19 -13 -50 -22 -68 -13
-30 -21 -115 -21 -225 0 -22 -5 -45 -12 -53 -6 -7 -12 -44 -14 -81 -2 -76 -14
-133 -26 -133 -4 0 -13 -25 -19 -54 -9 -45 -14 -54 -28 -49 -14 6 -15 4 -5 -8
8 -10 10 -30 6 -53 -4 -25 -9 -33 -14 -24 -6 9 -10 3 -15 -19 -4 -18 -10 -33
-14 -33 -4 0 -10 -12 -12 -27 -3 -16 -8 -37 -13 -48 -5 -14 -4 -16 3 -7 7 11
10 11 16 -3 9 -26 -19 -81 -70 -135 -26 -28 -57 -63 -68 -78 -33 -45 -120
-120 -113 -97 10 28 -36 -28 -70 -85 -14 -25 -50 -74 -80 -109 -42 -50 -53
-69 -48 -85 4 -12 8 -40 10 -64 2 -33 -2 -48 -18 -62 -17 -16 -20 -30 -18 -82
5 -105 1 -629 -5 -869 l-6 -226 83 -72 c92 -79 295 -218 402 -274 71 -38 73
-38 80 18 3 29 3 28 11 -10 4 -22 9 -45 11 -51 5 -15 184 -85 300 -118 553
-154 1203 -94 1660 152 62 34 90 55 91 68 2 46 5 55 14 49 6 -3 10 -15 10 -26
0 -10 4 -19 9 -19 15 0 178 112 266 183 45 36 131 116 193 177 l112 112 0 142
c0 78 4 167 9 197 52 307 49 522 -11 756 -6 27 -18 45 -29 48 -11 4 -19 10
-19 14 0 8 -118 161 -181 234 -22 26 -49 47 -59 47 -10 0 -40 9 -66 20 -26 11
-81 25 -121 31 -190 26 -283 72 -283 139 0 19 -9 38 -26 53 -28 26 -49 118
-58 248 -2 35 -7 82 -10 104 -4 30 -4 34 3 15 5 -15 9 -19 10 -9 1 9 -6 33
-14 53 -9 21 -18 61 -21 89 -3 29 -10 59 -14 68 -5 8 -11 33 -14 55 -2 21 -9
59 -13 84 -5 25 -8 69 -7 98 1 28 -1 54 -5 57 -4 2 -7 19 -6 37 2 18 -2 41 -7
51 -5 10 -9 49 -9 85 0 111 -34 267 -77 352 -20 41 -43 81 -49 88 -7 7 -13 20
-13 28 0 8 -5 14 -12 14 -6 0 -8 3 -5 6 9 10 -12 46 -23 39 -6 -4 -7 1 -3 11
4 11 2 15 -4 11 -15 -10 -25 21 -10 30 56 36 45 36 577 18 110 -4 160 -2 149
4 -8 5 -114 13 -235 16 -120 4 -264 8 -319 10 -55 2 -112 4 -126 4 -14 1 -43
12 -63 26 -21 14 -35 21 -31 15 3 -5 0 -10 -9 -10 -12 0 -58 45 -68 67 -6 15
-93 80 -149 112 -46 25 -62 30 -82 22 -18 -7 -30 -6 -43 3 -15 11 -25 11 -58
0 -45 -16 -80 -12 -141 17 -46 22 -101 31 -130 21z m395 -62 c0 -5 -9 -10 -20
-10 -11 0 -20 5 -20 10 0 6 9 10 20 10 11 0 20 -4 20 -10z m44 -583 c16 -23
46 -53 67 -66 21 -14 37 -27 36 -30 -1 -3 5 -17 13 -31 18 -32 25 -84 25 -190
l0 -85 -55 -6 c-123 -15 -254 -85 -306 -164 -29 -44 -7 -218 40 -327 9 -21 16
-41 16 -46 0 -19 -63 -102 -82 -108 -31 -10 -5 -20 40 -16 25 3 53 15 76 34
31 25 36 35 34 66 -1 21 -12 61 -25 91 -13 30 -24 66 -25 80 -1 14 -8 34 -17
44 -10 13 -11 21 -4 28 8 8 6 20 -7 41 -22 36 -12 68 28 94 23 15 25 15 19 0
-8 -21 7 -21 24 0 11 14 15 13 30 -7 9 -13 15 -28 12 -35 -6 -16 34 -27 99
-27 41 0 53 4 79 31 17 18 35 32 40 32 5 0 18 9 29 20 19 19 22 19 36 5 20
-20 15 -101 -14 -240 -31 -150 -53 -213 -91 -256 l-33 -40 21 -23 21 -23 -31
-89 c-19 -53 -45 -103 -64 -124 -17 -19 -37 -48 -45 -63 -7 -15 -34 -44 -59
-65 -25 -20 -52 -42 -59 -49 -6 -6 -20 -14 -30 -17 -38 -12 -142 -24 -164 -20
-21 4 -21 4 -3 -5 11 -5 52 -10 92 -10 73 -1 128 -14 119 -29 -2 -4 -1 -14 4
-21 12 -20 50 -7 94 33 21 20 42 33 47 30 5 -3 7 -10 4 -15 -4 -5 -1 -9 5 -9
8 0 10 -9 6 -24 -10 -39 55 -78 82 -50 7 7 19 11 27 8 8 -3 22 1 30 10 21 20
39 20 59 0 11 -11 16 -12 16 -3 0 8 5 6 13 -5 10 -14 18 -15 39 -7 27 10 108
11 108 1 0 -10 -67 -50 -150 -89 -99 -46 -228 -85 -355 -108 -116 -20 -304
-13 -390 14 -52 16 -60 22 -63 46 -2 15 1 27 6 27 15 0 19 59 7 140 -8 58 -8
108 0 121 3 4 21 1 40 -7 60 -25 57 -16 -13 45 -38 33 -83 81 -101 109 -37 58
-65 153 -57 200 3 20 -2 49 -14 76 -26 62 -34 177 -20 285 15 105 16 106 107
114 35 4 75 13 90 21 l28 15 -29 1 c-23 0 -27 3 -21 18 5 9 8 25 9 35 0 10 5
16 11 13 45 -18 45 -18 45 6 0 13 -5 29 -12 36 -9 9 -7 12 10 12 22 0 31 24
12 35 -5 3 -47 12 -92 20 -86 15 -138 32 -138 45 0 22 68 197 103 265 33 65
67 104 125 145 78 57 142 72 278 69 62 -2 116 0 120 4 13 12 18 8 48 -36z
m-1014 -40 c0 -7 -4 -6 -11 3 -9 12 -10 10 -5 -9 4 -20 -3 -56 -39 -191 -4
-14 -11 -42 -16 -62 -6 -21 -14 -38 -19 -38 -7 0 -5 28 5 80 2 8 4 23 4 33 1
11 6 15 12 11 7 -4 9 0 5 14 -9 27 3 74 17 65 6 -4 8 0 4 11 -5 11 -3 15 5 10
7 -5 9 0 6 14 -4 12 -2 22 4 22 5 0 7 9 3 20 -3 11 -3 24 0 30 8 13 25 3 25
-13z m63 -110 c-4 -6 -9 -29 -11 -51 -2 -22 -8 -47 -13 -56 -11 -16 -4 46 8
77 4 11 2 14 -5 9 -15 -9 -15 -1 0 23 7 11 16 17 20 15 5 -3 5 -11 1 -17z
m-43 -164 c-11 -17 -11 -17 -6 0 3 10 6 24 7 30 0 9 2 9 5 0 3 -7 0 -20 -6
-30z m1119 -142 c7 -5 11 -13 7 -19 -10 -16 -55 -20 -73 -6 -17 12 -16 13 7
23 32 12 42 13 59 2z m-751 -67 c33 -9 26 -24 -12 -24 -21 0 -36 6 -40 15 -6
16 12 19 52 9z m685 -48 c3 -8 -1 -20 -9 -26 -12 -10 -14 -8 -14 14 0 28 14
35 23 12z m-86 -2 c-3 -3 -12 -4 -19 -1 -8 3 -5 6 6 6 11 1 17 -2 13 -5z
m-579 -87 c15 -17 14 -17 -8 -9 -34 13 -49 40 -30 52 11 7 16 5 19 -8 1 -9 10
-25 19 -35z m45 46 c-7 -2 -19 -2 -25 0 -7 3 -2 5 12 5 14 0 19 -2 13 -5z
m447 -365 c0 -5 -4 -8 -10 -8 -5 0 -10 10 -10 23 0 18 2 19 10 7 5 -8 10 -18
10 -22z m779 -388 c0 -20 -3 -17 -14 15 -18 50 -18 53 0 29 8 -10 14 -30 14
-44z m-2080 -158 c-7 -20 -20 -32 -45 -40 l-34 -10 37 39 c45 46 55 49 42 11z
m-59 -117 c-7 -9 -15 -13 -17 -11 -7 7 7 26 19 26 6 0 6 -6 -2 -15z m-46 -20
c-10 -8 -23 -14 -29 -14 -5 -1 1 8 15 19 14 10 27 17 29 14 3 -2 -4 -11 -15
-19z m973 -1131 c-3 -3 -12 -4 -19 -1 -8 3 -5 6 6 6 11 1 17 -2 13 -5z m23
-43 c0 -5 -7 -12 -16 -15 -14 -5 -15 -4 -4 9 14 17 20 19 20 6z m725 -481 c3
-6 -1 -7 -9 -4 -18 7 -21 14 -7 14 6 0 13 -4 16 -10z m-561 -24 c-10 -8 -21
-12 -24 -10 -5 6 21 24 34 24 6 0 1 -6 -10 -14z m31 -45 c-7 -13 -42 -15 -49
-2 -3 4 6 6 19 3 16 -3 25 0 25 9 0 7 3 10 6 6 3 -3 3 -10 -1 -16z m93 -151
c-7 -10 -14 -17 -17 -15 -4 4 18 35 25 35 2 0 -1 -9 -8 -20z m44 -32 c-8 -8
-9 -4 -5 13 4 13 8 18 11 10 2 -7 -1 -18 -6 -23z"/>
<path d="M2406 3126 c10 -8 21 -12 24 -10 5 6 -21 24 -34 24 -6 0 -1 -6 10
-14z"/>
<path d="M2185 2730 c-3 -5 -1 -10 4 -10 6 0 11 5 11 10 0 6 -2 10 -4 10 -3 0
-8 -4 -11 -10z"/>
<path d="M2480 2591 c-8 -5 -40 -12 -70 -16 -30 -4 -62 -11 -70 -15 -8 -4 -55
-11 -105 -15 -163 -13 -142 -33 35 -35 114 -1 120 -1 120 -10 0 -11 -30 -34
-30 -24 -1 5 -9 0 -18 -11 -22 -25 -37 -28 -65 -14 -12 7 -19 8 -15 4 4 -4 3
-16 -2 -26 -8 -14 -5 -18 18 -23 41 -8 162 -5 196 5 17 5 32 5 35 0 4 -5 15 3
25 17 12 15 14 22 5 17 -10 -6 -9 -3 2 11 9 10 20 34 24 53 l7 34 -32 -36
c-38 -43 -50 -46 -50 -12 0 36 20 74 44 81 21 7 21 7 1 15 -26 10 -37 10 -55
0z"/>
<path d="M2064 2539 c-3 -5 6 -9 20 -9 31 0 34 6 6 13 -11 3 -23 1 -26 -4z"/>
<path d="M1361 3464 c0 -11 3 -14 6 -6 3 7 2 16 -1 19 -3 4 -6 -2 -5 -13z"/>
<path d="M1263 2745 c-3 -9 -3 -18 -1 -21 3 -3 8 4 11 16 6 23 -1 27 -10 5z"/>
<path d="M30 1881 c0 -6 11 -40 26 -74 25 -61 33 -80 73 -167 38 -85 53 -125
66 -185 13 -59 13 -59 14 -18 2 70 -19 143 -70 248 -59 122 -109 212 -109 196z"/>
<path d="M381 1284 c0 -11 3 -14 6 -6 3 7 2 16 -1 19 -3 4 -6 -2 -5 -13z"/>
<path d="M380 1120 c0 -36 3 -48 13 -44 15 5 47 -45 47 -74 0 -12 5 -24 10
-27 17 -10 12 13 -20 92 -16 41 -30 81 -30 89 0 8 -4 14 -10 14 -5 0 -10 -22
-10 -50z"/>
<path d="M370 1028 c0 -19 2 -20 10 -8 13 19 13 30 0 30 -5 0 -10 -10 -10 -22z"/>
<path d="M461 929 c-1 -24 6 -45 20 -60 l20 -24 -7 25 c-4 14 -13 41 -20 60
l-13 35 0 -36z"/>
</g>
</svg>
